<?xml version="1.0" encoding="UTF-8" standalone="no" ?>
<!DOCTYPE svg PUBLIC "-//W3C//DTD SVG 1.1//EN" "http://www.w3.org/Graphics/SVG/1.1/DTD/svg11.dtd">
<svg xmlns="http://www.w3.org/2000/svg" xmlns:xlink="http://www.w3.org/1999/xlink" version="1.1" width="640" height="640" viewBox="0 0 640 640" xml:space="preserve">
<desc>Created with Fabric.js 4.6.0</desc>
<defs>
</defs>
<g transform="matrix(1 0 0 1 320 320.76)" id="NgV4vm9lDg-Ehm3MqRmhp"  >
<g style="" vector-effect="non-scaling-stroke"   >
		<g transform="matrix(0.97 -0.26 0.26 0.97 -14.56 22.03)" id="MObLXxUNzOt-YYMoMcmCI"  >
<path style="stroke: rgb(179,217,205); stroke-width: 0; stroke-dasharray: none; stroke-linecap: butt; stroke-dashoffset: 0; stroke-linejoin: miter; stroke-miterlimit: 4; fill: rgb(141,124,99); fill-opacity: 0.68; fill-rule: nonzero; opacity: 1;" vector-effect="non-scaling-stroke"  transform=" translate(-195.14, -254.82)" d="M 0 85.50791 L 17.8722 67.28979 L 17.96482 67.27181999999999 L 17.77477 66.50958999999999 L 284.53015999999997 -1.4210854715202004e-14 L 390.2804 424.14106 L 369.08633 429.42533 L 372.50563 443.13937999999996 L 105.75024000000002 509.64896999999996 z" stroke-linecap="round" />
</g>
		<g transform="matrix(0.93 -0.25 0.25 0.93 -28.12 283.27)" id="ni64znF-BI4p3U-uUvhPE"  >
<path style="stroke: rgb(255,231,149); stroke-width: 0; stroke-dasharray: none; stroke-linecap: butt; stroke-dashoffset: 0; stroke-linejoin: miter; stroke-miterlimit: 4; fill: rgb(255,255,255); fill-opacity: 0; fill-rule: nonzero; opacity: 1;" vector-effect="non-scaling-stroke"  transform=" translate(0, 0)" d="M 10.05338 -13.39526 L -15.33717 13.39527 L 15.33718 6.75642 z" stroke-linecap="round" />
</g>
		<g transform="matrix(0.95 -0.53 0.84 1.52 14.48 -24.39)" id="klZoJGCpywspku5gJFiZ8"  >
<path style="stroke: rgb(179,217,205); stroke-width: 0; stroke-dasharray: none; stroke-linecap: butt; stroke-dashoffset: 0; stroke-linejoin: miter; stroke-miterlimit: 4; fill: rgb(159,255,219); fill-opacity: 0.8; fill-rule: nonzero; opacity: 1;" vector-effect="non-scaling-stroke"  transform=" translate(0, 0)" d="M -137.46087 -121.52015 C -137.46087 -130.32397 -126.1132 -137.46087 -112.11513 -137.46087 L 112.11512000000002 -137.46087 L 112.11512000000002 -137.46087 C 126.11319000000002 -137.46087 137.46086000000003 -130.32397 137.46086000000003 -121.52015 L 137.46086000000003 121.52015 L 137.46086000000003 121.52015 C 137.46086000000003 130.32397 126.11319000000003 137.46087 112.11512000000002 137.46087 L -112.11513 137.46087 L -112.11513 137.46087 C -126.11319999999999 137.46087 -137.46087 130.32397 -137.46087 121.52015 z" stroke-linecap="round" />
</g>
		<g transform="matrix(0.96 -0.53 0.84 1.52 21.55 -36.64)" id="X9teEJr1JH0MHCavA8_VL"  >
<path style="stroke: rgb(179,217,205); stroke-width: 0; stroke-dasharray: none; stroke-linecap: butt; stroke-dashoffset: 0; stroke-linejoin: miter; stroke-miterlimit: 4; fill: rgb(159,219,255); fill-opacity: 0.8; fill-rule: nonzero; opacity: 1;" vector-effect="non-scaling-stroke"  transform=" translate(0, 0)" d="M -137.46087 -121.52015 C -137.46087 -130.32397 -126.1132 -137.46087 -112.11513 -137.46087 L 112.11512000000002 -137.46087 L 112.11512000000002 -137.46087 C 126.11319000000002 -137.46087 137.46086000000003 -130.32397 137.46086000000003 -121.52015 L 137.46086000000003 121.52015 L 137.46086000000003 121.52015 C 137.46086000000003 130.32397 126.11319000000003 137.46087 112.11512000000002 137.46087 L -112.11513 137.46087 L -112.11513 137.46087 C -126.11319999999999 137.46087 -137.46087 130.32397 -137.46087 121.52015 z" stroke-linecap="round" />
</g>
		<g transform="matrix(0.32 -0.19 0.81 1.41 -96.3 -113.76)" id="rDW6sM18C8uK6QUGFALVn"  >
<path style="stroke: rgb(92,227,53); stroke-width: 0; stroke-dasharray: none; stroke-linecap: butt; stroke-dashoffset: 0; stroke-linejoin: miter; stroke-miterlimit: 4; fill: rgb(255,159,159); fill-opacity: 0.8; fill-rule: nonzero; opacity: 1;" vector-effect="non-scaling-stroke"  transform=" translate(0, 0)" d="M -103.62989 -103.62989 L 103.6299 -103.62989 L 103.6299 103.6299 L -4.002499999999998 74.90685 L -103.62989 103.6299 z" stroke-linecap="round" />
</g>
</g>
</g>
</svg>